# xmcd
#
# Track frame offsets: 
#        150
#        15873
#        30387
#        44559
#        57434
#        72241
#        86272
#        99635
#        113390
#        128041
#        142095
#        156013
#        170498
#        184629
#        198882
#        212553
#        228240
#        243862
#        258633
#        273919
#
# Disc length: 3835 seconds
#
# Revision: 0
# Processed by: cddbd v1.5.2PL0 Copyright (c) Steve Scherf et al.
# Submitted via: ExactAudioCopy v0.99pb5
#
DISCID=040ef914
DTITLE=Charlie Poole and The North Carolina Ramblers - The Essential Cha
DTITLE=rlie Poole CD 01 - White House Blues
DYEAR=2009
DGENRE=Country
TTITLE0=The Girl I Left In Sunny Tennessee
TTITLE1=I'm The Man Who Rode The Mule Around The World
TTITLE2=Can I Sleep In Your Barn Tonight Mister
TTITLE3=Don't Let Your Deal Go Down Blues
TTITLE4=Flyin' Clouds
TTITLE5=Wild Horse
TTITLE6=Forks Of Sandy
TTITLE7=Mountain Reel
TTITLE8=Good-Bye Booze
TTITLE9=Monkey On A String
TTITLE10=Too Young To Marry
TTITLE11=Ragtime Annie
TTITLE12=A Kiss Waltz
TTITLE13=Leaving Home
TTITLE14=Budded Rose
TTITLE15=There'll Come A Time
TTITLE16=White House Blues
TTITLE17=The Highwayman
TTITLE18=Hungry Hash House
TTITLE19=If I Lose, I Don't Care
EXTD=
EXTT0=
EXTT1=
EXTT2=
EXTT3=
EXTT4=
EXTT5=
EXTT6=
EXTT7=
EXTT8=
EXTT9=
EXTT10=
EXTT11=
EXTT12=
EXTT13=
EXTT14=
EXTT15=
EXTT16=
EXTT17=
EXTT18=
EXTT19=
PLAYORDER=
